<?xml version="1.0" encoding="UTF-8" standalone="no"?><!DOCTYPE svg PUBLIC "-//W3C//DTD SVG 1.1//EN" "http://www.w3.org/Graphics/SVG/1.1/DTD/svg11.dtd"><svg width="544px" height="414px" version="1.1" xmlns="http://www.w3.org/2000/svg" xmlns:xlink="http://www.w3.org/1999/xlink" xml:space="preserve" xmlns:serif="http://www.serif.com/" style="fill-rule:evenodd;clip-rule:evenodd;stroke-linejoin:round;stroke-miterlimit:2;"><g transform="matrix(4.16667,0,0,-4.16667,-0.00282083,413.393)"><path d="M80.789,99.214L128.977,99.214C129.76,99.214 130.394,98.58 130.394,97.797L130.394,12.758C130.394,11.975 129.76,11.341 128.977,11.341L93.542,11.341L93.542,1.418C93.542,0.635 92.908,0.001 92.125,0.001L1.418,0.001C0.636,0.001 0.001,0.636 0.001,1.418L0.001,86.457C0.001,87.24 0.635,87.874 1.418,87.874L79.372,87.874L79.372,97.797C79.372,97.844 79.374,97.89 79.378,97.936C79.392,98.074 79.426,98.21 79.48,98.34C79.624,98.687 79.899,98.963 80.247,99.107C80.419,99.178 80.603,99.214 80.789,99.214ZM90.708,85.04L2.835,85.04L2.835,2.835L90.708,2.835L90.708,85.04ZM93.542,14.175L127.56,14.175L127.56,96.38L84.21,96.38L93.127,87.459C93.222,87.364 93.301,87.259 93.364,87.146C93.478,86.942 93.542,86.707 93.542,86.457L93.542,14.175Z"/></g><g transform="matrix(3.57125,0,0,3.57125,-2280.23,-4544.16)"><path d="M650.969,1334.29L661.119,1334.29L661.119,1298.29L650.969,1299.29L650.969,1334.29Z" style="fill-rule:nonzero;"/><path d="M686.019,1324.74C682.969,1326.89 680.219,1327.94 677.769,1327.94C676.369,1327.94 675.219,1327.59 674.319,1326.84L689.519,1321.94C689.019,1314.44 683.719,1309.99 677.119,1309.99C669.719,1309.99 664.219,1315.54 664.219,1322.59C664.219,1329.64 670.119,1335.09 677.669,1335.09C681.619,1335.09 685.719,1333.64 688.569,1331.64L686.019,1324.74ZM672.619,1321.44C673.019,1318.84 674.769,1317.14 677.219,1317.14C678.619,1317.14 679.819,1317.79 680.619,1318.84L672.619,1321.44Z" style="fill-rule:nonzero;"/><path d="M650.969,1377.5L661.119,1377.5L661.119,1341.5L650.969,1342.5L650.969,1377.5Z" style="fill-rule:nonzero;"/><path d="M675.669,1354L665.519,1354L665.519,1377.5L675.669,1377.5L675.669,1354ZM665.519,1342.05L665.519,1351.44L675.669,1351.44L675.669,1342.05L665.519,1342.05Z" style="fill-rule:nonzero;"/><path d="M700.569,1367.94C697.519,1370.1 694.769,1371.14 692.319,1371.14C690.919,1371.14 689.769,1370.8 688.869,1370.05L704.069,1365.14C703.569,1357.64 698.269,1353.19 691.669,1353.19C684.269,1353.19 678.769,1358.75 678.769,1365.8C678.769,1372.85 684.669,1378.3 692.219,1378.3C696.169,1378.3 700.269,1376.85 703.119,1374.85L700.569,1367.94ZM687.169,1364.64C687.569,1362.05 689.319,1360.35 691.769,1360.35C693.169,1360.35 694.369,1361 695.169,1362.05L687.169,1364.64Z" style="fill-rule:nonzero;"/><path d="M721.519,1354.5L721.519,1367.25C721.519,1368.69 720.619,1369.75 719.219,1369.75C717.819,1369.75 716.919,1368.69 716.919,1367.25L716.919,1353.5L706.769,1354.5L706.769,1368.64C706.769,1374.5 709.469,1378.19 715.019,1378.19C717.769,1378.19 720.069,1377.3 721.719,1375.55L721.719,1377.5L731.669,1377.5L731.669,1353.5L721.519,1354.5Z" style="fill-rule:nonzero;"/></g></svg>